<svg xmlns="http://www.w3.org/2000/svg" viewBox="-8742.9 1882.5 250 230.875">
  <defs>
    <style>
      .cls-1 {
        fill: #f57177;
      }

      .cls-2 {
        opacity: 0.11;
      }
    </style>
  </defs>
  <g id="グループ化_6192" data-name="グループ化 6192" transform="translate(-9132 1837)">
    <g id="グループ化_6190" data-name="グループ化 6190" transform="translate(77)">
      <path id="パス_5861" data-name="パス 5861" class="cls-1" d="M547.85,99.25A53.8,53.8,0,0,0,447.475,72.375l-69.75,121A52.807,52.807,0,0,0,369.1,222.5a53.8,53.8,0,0,0,100.375,26.875h.125l71.125-123.25h0A53.884,53.884,0,0,0,547.85,99.25Z" transform="translate(14.25)"/>
      <path id="パス_5863" data-name="パス 5863" class="cls-2" d="M547.85,99.25A53.8,53.8,0,0,0,447.475,72.375l-69.75,121A52.807,52.807,0,0,0,369.1,222.5a53.8,53.8,0,0,0,100.375,26.875h.125l71.125-123.25h0A53.884,53.884,0,0,0,547.85,99.25Z" transform="translate(14.25)"/>
      <path id="パス_5864" data-name="パス 5864" class="cls-1" d="M437.225,115.1h0l-24.75-42.625a53.762,53.762,0,1,0-93.125,53.75h0l71.125,123.25h.125a53.774,53.774,0,0,0,93.125,0h.125l15.5-26.875Z" transform="translate(0 0.025)"/>
    </g>
  </g>
</svg>
