<?xml version="1.0" standalone="no"?>
<!DOCTYPE svg PUBLIC "-//W3C//DTD SVG 20010904//EN"
 "http://www.w3.org/TR/2001/REC-SVG-20010904/DTD/svg10.dtd">
<svg version="1.0" xmlns="http://www.w3.org/2000/svg"
 width="800.000000pt" height="800.000000pt" viewBox="0 0 800.000000 800.000000"
 preserveAspectRatio="xMidYMid meet">
<metadata>
Created by potrace 1.14, written by Peter Selinger 2001-2017
</metadata>
<g transform="translate(0.000000,800.000000) scale(0.100000,-0.100000)"
fill="#000000" stroke="none">
<path d="M1550 7681 c0 -4 -15 -6 -32 -6 -18 1 -37 -1 -42 -3 -6 -3 -19 -6
-30 -8 -96 -8 -361 -85 -378 -109 -4 -5 -8 -7 -8 -3 0 20 -361 -185 -390 -221
-3 -3 -26 -23 -53 -44 -122 -99 -281 -284 -371 -434 -119 -199 -203 -446 -234
-683 -8 -67 -8 -348 1 -410 18 -122 18 -124 45 -230 23 -87 47 -162 67 -205
56 -121 144 -294 155 -305 7 -7 29 -43 37 -60 4 -8 26 -48 50 -88 24 -41 43
-78 43 -83 0 -5 5 -9 10 -9 6 0 10 -4 10 -10 0 -5 20 -44 45 -86 25 -41 45
-78 45 -80 0 -2 12 -23 27 -47 23 -36 53 -89 163 -282 9 -16 40 -69 69 -117
28 -48 51 -89 51 -92 0 -3 12 -22 26 -43 14 -21 30 -47 35 -58 5 -11 23 -42
40 -70 16 -27 33 -58 36 -67 3 -10 9 -18 14 -18 5 0 9 -4 9 -9 0 -9 188 -341
311 -549 27 -45 49 -85 49 -88 0 -3 8 -18 19 -32 10 -15 29 -47 43 -72 37 -65
132 -230 197 -340 30 -52 56 -97 56 -100 0 -3 9 -18 19 -35 53 -83 64 -103 77
-132 7 -18 17 -33 21 -33 5 0 8 -6 8 -14 0 -7 7 -19 15 -26 8 -7 12 -16 9 -21
-3 -5 0 -9 5 -9 6 0 11 -5 11 -10 0 -6 16 -36 35 -66 19 -30 35 -56 35 -58 0
-3 20 -39 45 -80 25 -42 45 -81 45 -86 0 -6 5 -10 10 -10 6 0 10 -4 10 -10 0
-8 163 -294 234 -410 11 -19 21 -37 21 -40 0 -3 8 -16 17 -30 35 -55 88 -152
88 -161 0 -5 5 -9 10 -9 6 0 10 -5 10 -10 0 -6 11 -27 23 -48 13 -20 38 -62
54 -92 30 -53 113 -184 130 -205 5 -5 20 -26 33 -45 45 -65 191 -218 265 -280
51 -43 139 -106 165 -120 14 -7 27 -16 30 -20 14 -20 291 -154 339 -164 9 -2
29 -8 45 -15 16 -6 38 -13 50 -16 11 -2 21 -4 21 -5 0 -2 37 -11 68 -15 16 -3
33 -7 38 -11 5 -3 24 -7 42 -9 18 -2 48 -7 67 -11 56 -11 401 -13 450 -3 25 5
63 11 85 14 40 4 46 5 120 25 22 6 50 13 62 15 136 30 488 209 569 289 8 9 19
16 23 16 11 0 231 218 271 269 80 102 132 184 275 431 43 74 86 149 95 165 10
17 44 75 75 130 32 55 66 115 76 133 11 17 27 47 38 65 10 17 32 56 50 85 17
29 31 55 31 57 0 3 17 33 38 67 21 35 41 70 45 78 4 8 18 33 31 55 14 22 33
56 44 75 11 19 77 134 147 255 70 121 135 234 145 250 9 17 34 61 56 99 21 37
48 85 60 105 47 82 155 267 163 281 6 8 22 38 37 65 15 28 29 52 33 55 3 3 15
24 26 47 11 24 23 43 28 43 4 0 7 4 7 9 0 5 48 92 107 193 110 189 138 238
171 298 11 19 43 76 72 125 49 84 68 117 102 176 7 13 15 26 18 29 3 3 18 30
34 60 16 30 37 66 46 80 9 14 30 50 47 80 17 30 60 106 97 169 36 62 66 115
66 116 0 2 18 33 40 69 22 36 40 70 40 75 0 5 4 11 8 13 9 3 13 11 62 105 14
26 28 50 32 53 9 7 71 141 106 230 24 63 34 91 47 140 0 3 4 14 8 25 3 11 8
31 11 45 3 14 7 36 11 50 5 26 10 58 23 145 9 66 9 336 0 405 -4 30 -10 72
-12 93 -8 65 -68 280 -95 342 -30 67 -105 216 -126 250 -14 22 -30 50 -37 63
-6 12 -15 22 -20 22 -4 0 -8 6 -8 13 0 6 -14 27 -30 46 -17 18 -30 37 -30 40
0 4 -33 42 -73 84 -40 42 -71 77 -69 77 2 0 -11 12 -30 27 -18 15 -35 30 -38
34 -31 36 -313 231 -339 235 -3 0 -40 17 -81 36 -62 30 -160 70 -180 74 -3 0
-12 3 -20 6 -17 6 -93 28 -122 34 -107 24 -170 34 -178 29 -5 -3 -11 -1 -14 4
-4 6 -90 8 -209 7 -188 -3 -242 -7 -307 -21 -14 -3 -38 -8 -55 -11 -79 -14
-271 -81 -382 -134 -102 -49 -245 -135 -251 -151 -2 -5 -8 -9 -13 -9 -8 0 -35
-20 -64 -47 -8 -7 -17 -13 -20 -13 -9 0 -200 -194 -238 -241 -15 -19 -38 -47
-51 -64 -39 -51 -158 -246 -190 -312 -6 -13 -14 -23 -18 -23 -5 0 -8 -4 -8
-10 0 -14 -231 -414 -244 -422 -6 -4 -8 -8 -4 -8 4 0 -9 -28 -30 -62 -21 -35
-42 -70 -46 -78 -4 -8 -18 -33 -31 -55 -13 -22 -32 -56 -41 -75 -10 -19 -21
-37 -24 -40 -3 -3 -27 -43 -54 -89 -47 -82 -61 -106 -107 -188 -68 -121 -94
-163 -99 -163 -7 0 -70 108 -70 121 0 5 -4 9 -10 9 -5 0 -10 4 -10 10 0 5 -20
44 -45 86 -25 41 -45 80 -45 85 0 5 -4 9 -10 9 -5 0 -10 4 -10 10 0 5 -20 44
-45 86 -25 41 -45 80 -45 85 0 5 -4 9 -10 9 -5 0 -10 4 -10 9 0 5 -59 111
-131 236 -71 125 -136 237 -142 248 -7 12 -18 27 -25 35 -7 7 -10 17 -7 22 3
5 2 10 -3 12 -7 3 -82 125 -82 134 0 2 -16 28 -35 58 -19 30 -35 57 -35 60 0
3 -16 30 -35 60 -19 30 -35 59 -35 65 0 5 -4 11 -8 13 -4 2 -33 37 -65 79 -76
102 -194 222 -297 303 -47 37 -90 71 -96 76 -23 18 -201 117 -259 144 -67 32
-271 101 -325 111 -19 4 -42 8 -50 9 -8 2 -31 6 -50 10 -19 3 -48 9 -65 12
-42 9 -395 13 -395 5z"/>
</g>
</svg>
