<svg xmlns="http://www.w3.org/2000/svg" xmlns:xlink="http://www.w3.org/1999/xlink" viewBox="0 0 188.884 188.884"><defs><style>.a{fill:#fff;}.b,.d{fill:none;}.b{stroke:#fff;stroke-width:2px;}.c{stroke:none;}.e{filter:url(#aa);}.f{filter:url(#y);}.g{filter:url(#w);}.h{filter:url(#u);}.i{filter:url(#s);}.j{filter:url(#q);}.k{filter:url(#o);}.l{filter:url(#m);}.m{filter:url(#k);}.n{filter:url(#i);}.o{filter:url(#g);}.p{filter:url(#e);}.q{filter:url(#c);}.r{filter:url(#a);}</style><filter id="a" x="80.366" y="10.997" width="26.46" height="26.46" filterUnits="userSpaceOnUse"><feOffset dy="3" input="SourceAlpha"/><feGaussianBlur stdDeviation="3" result="b"/><feFlood flood-opacity="0.161"/><feComposite operator="in" in2="b"/><feComposite in="SourceGraphic"/></filter><filter id="c" x="0" y="0" width="188.884" height="188.884" filterUnits="userSpaceOnUse"><feOffset dy="3" input="SourceAlpha"/><feGaussianBlur stdDeviation="3" result="d"/><feFlood flood-opacity="0.161"/><feComposite operator="in" in2="d"/><feComposite in="SourceGraphic"/></filter><filter id="e" x="143.017" y="43.175" width="24.934" height="24.934" filterUnits="userSpaceOnUse"><feOffset dy="3" input="SourceAlpha"/><feGaussianBlur stdDeviation="3" result="f"/><feFlood flood-opacity="0.161"/><feComposite operator="in" in2="f"/><feComposite in="SourceGraphic"/></filter><filter id="g" x="116.417" y="16.039" width="24.934" height="24.934" filterUnits="userSpaceOnUse"><feOffset dy="3" input="SourceAlpha"/><feGaussianBlur stdDeviation="3" result="h"/><feFlood flood-opacity="0.161"/><feComposite operator="in" in2="h"/><feComposite in="SourceGraphic"/></filter><filter id="i" x="10.997" y="81.212" width="26.46" height="26.46" filterUnits="userSpaceOnUse"><feOffset dy="3" input="SourceAlpha"/><feGaussianBlur stdDeviation="3" result="j"/><feFlood flood-opacity="0.161"/><feComposite operator="in" in2="j"/><feComposite in="SourceGraphic"/></filter><filter id="k" x="47.525" y="18.207" width="24.934" height="24.934" filterUnits="userSpaceOnUse"><feOffset dy="3" input="SourceAlpha"/><feGaussianBlur stdDeviation="3" result="l"/><feFlood flood-opacity="0.161"/><feComposite operator="in" in2="l"/><feComposite in="SourceGraphic"/></filter><filter id="m" x="21.235" y="42.163" width="24.934" height="24.934" filterUnits="userSpaceOnUse"><feOffset dy="3" input="SourceAlpha"/><feGaussianBlur stdDeviation="3" result="n"/><feFlood flood-opacity="0.161"/><feComposite operator="in" in2="n"/><feComposite in="SourceGraphic"/></filter><filter id="o" x="149.735" y="81.212" width="26.46" height="26.46" filterUnits="userSpaceOnUse"><feOffset dy="3" input="SourceAlpha"/><feGaussianBlur stdDeviation="3" result="p"/><feFlood flood-opacity="0.161"/><feComposite operator="in" in2="p"/><feComposite in="SourceGraphic"/></filter><filter id="q" x="116.894" y="138.358" width="24.934" height="24.934" filterUnits="userSpaceOnUse"><feOffset dy="3" input="SourceAlpha"/><feGaussianBlur stdDeviation="3" result="r"/><feFlood flood-opacity="0.161"/><feComposite operator="in" in2="r"/><feComposite in="SourceGraphic"/></filter><filter id="s" x="81.364" y="81.678" width="24.934" height="24.934" filterUnits="userSpaceOnUse"><feOffset dy="3" input="SourceAlpha"/><feGaussianBlur stdDeviation="3" result="t"/><feFlood flood-opacity="0.161"/><feComposite operator="in" in2="t"/><feComposite in="SourceGraphic"/></filter><filter id="u" x="141.385" y="111.531" width="24.934" height="24.934" filterUnits="userSpaceOnUse"><feOffset dy="3" input="SourceAlpha"/><feGaussianBlur stdDeviation="3" result="v"/><feFlood flood-opacity="0.161"/><feComposite operator="in" in2="v"/><feComposite in="SourceGraphic"/></filter><filter id="w" x="80.366" y="149.735" width="26.46" height="26.46" filterUnits="userSpaceOnUse"><feOffset dy="3" input="SourceAlpha"/><feGaussianBlur stdDeviation="3" result="x"/><feFlood flood-opacity="0.161"/><feComposite operator="in" in2="x"/><feComposite in="SourceGraphic"/></filter><filter id="y" x="22.867" y="112.544" width="24.934" height="24.934" filterUnits="userSpaceOnUse"><feOffset dy="3" input="SourceAlpha"/><feGaussianBlur stdDeviation="3" result="z"/><feFlood flood-opacity="0.161"/><feComposite operator="in" in2="z"/><feComposite in="SourceGraphic"/></filter><filter id="aa" x="47.049" y="136.191" width="24.934" height="24.934" filterUnits="userSpaceOnUse"><feOffset dy="3" input="SourceAlpha"/><feGaussianBlur stdDeviation="3" result="ab"/><feFlood flood-opacity="0.161"/><feComposite operator="in" in2="ab"/><feComposite in="SourceGraphic"/></filter></defs><g transform="translate(-840 -233.116)"><g class="r" transform="matrix(1, 0, 0, 1, 840, 233.12)"><circle class="a" cx="4.23" cy="4.23" r="4.23" transform="translate(89.37 17)"/></g><g class="q" transform="matrix(1, 0, 0, 1, 840, 233.12)"><g class="b" transform="translate(9 6)"><circle class="c" cx="85.442" cy="85.442" r="85.442"/><circle class="d" cx="85.442" cy="85.442" r="84.442"/></g></g><g class="p" transform="matrix(1, 0, 0, 1, 840, 233.12)"><circle class="a" cx="2.538" cy="2.538" r="2.538" transform="translate(156.41 49.17) rotate(60)"/></g><g class="o" transform="matrix(1, 0, 0, 1, 840, 233.12)"><circle class="a" cx="2.538" cy="2.538" r="2.538" transform="translate(127.96 22.04) rotate(30)"/></g><g class="n" transform="matrix(1, 0, 0, 1, 840, 233.12)"><circle class="a" cx="4.23" cy="4.23" r="4.23" transform="translate(20 87.21)"/></g><g class="m" transform="matrix(1, 0, 0, 1, 840, 233.12)"><circle class="a" cx="2.538" cy="2.538" r="2.538" transform="translate(60.92 24.21) rotate(60)"/></g><g class="l" transform="matrix(1, 0, 0, 1, 840, 233.12)"><circle class="a" cx="2.538" cy="2.538" r="2.538" transform="translate(32.77 48.16) rotate(30)"/></g><g class="k" transform="matrix(1, 0, 0, 1, 840, 233.12)"><circle class="a" cx="4.23" cy="4.23" r="4.23" transform="translate(158.73 87.21)"/></g><g class="j" transform="matrix(1, 0, 0, 1, 840, 233.12)"><circle class="a" cx="2.538" cy="2.538" r="2.538" transform="translate(130.29 144.36) rotate(60)"/></g><g class="i" transform="matrix(1, 0, 0, 1, 840, 233.12)"><circle class="a" cx="2.538" cy="2.538" r="2.538" transform="translate(94.76 87.68) rotate(60)"/></g><g class="h" transform="matrix(1, 0, 0, 1, 840, 233.12)"><circle class="a" cx="2.538" cy="2.538" r="2.538" transform="translate(152.92 117.53) rotate(30)"/></g><g class="g" transform="matrix(1, 0, 0, 1, 840, 233.12)"><circle class="a" cx="4.23" cy="4.23" r="4.23" transform="translate(89.37 155.74)"/></g><g class="f" transform="matrix(1, 0, 0, 1, 840, 233.12)"><circle class="a" cx="2.538" cy="2.538" r="2.538" transform="translate(36.26 118.54) rotate(60)"/></g><g class="e" transform="matrix(1, 0, 0, 1, 840, 233.12)"><circle class="a" cx="2.538" cy="2.538" r="2.538" transform="translate(58.59 142.19) rotate(30)"/></g></g></svg>